<svg width="24" height="24" viewBox="0 0 24 24" fill="none" xmlns="http://www.w3.org/2000/svg">
<path d="M0 1.02857C0 0.755777 0.108374 0.494156 0.301282 0.301261C0.494191 0.108367 0.75583 0 1.02864 0H1.79395C3.0969 0 3.87867 0.876343 4.32442 1.69097C4.62204 2.23406 4.83737 2.86354 5.00606 3.43406C5.05169 3.43046 5.09745 3.42863 5.14322 3.42857H22.2845C23.4229 3.42857 24.2458 4.51749 23.9331 5.61326L21.426 14.4027C21.2012 15.1911 20.7256 15.8848 20.0713 16.3787C19.417 16.8726 18.6195 17.1399 17.7996 17.1401H9.64182C8.81546 17.1401 8.01197 16.8688 7.35483 16.3678C6.6977 15.8668 6.22329 15.1639 6.00453 14.3671L4.96217 10.5655L3.23405 4.73966L3.23268 4.72869C3.01872 3.95109 2.81848 3.22286 2.51949 2.67977C2.23284 2.15177 2.00243 2.05714 1.79533 2.05714H1.02864C0.75583 2.05714 0.494191 1.94878 0.301282 1.75588C0.108374 1.56299 0 1.30137 0 1.02857ZM6.95774 10.0663L7.98776 13.8226C8.19349 14.5659 8.86965 15.083 9.64182 15.083H17.7996C18.1723 15.083 18.5348 14.9615 18.8323 14.7371C19.1297 14.5127 19.346 14.1974 19.4482 13.8391L21.8306 5.48571H5.60268L6.93854 9.9936L6.95774 10.0663ZM11.658 21.2571C11.658 21.9846 11.369 22.6823 10.8545 23.1966C10.3401 23.711 9.64241 24 8.91491 24C8.18741 24 7.4897 23.711 6.97528 23.1966C6.46086 22.6823 6.17186 21.9846 6.17186 21.2571C6.17186 20.5297 6.46086 19.832 6.97528 19.3177C7.4897 18.8033 8.18741 18.5143 8.91491 18.5143C9.64241 18.5143 10.3401 18.8033 10.8545 19.3177C11.369 19.832 11.658 20.5297 11.658 21.2571ZM9.60067 21.2571C9.60067 21.0753 9.52842 20.9009 9.39982 20.7723C9.27121 20.6437 9.09678 20.5714 8.91491 20.5714C8.73303 20.5714 8.55861 20.6437 8.43 20.7723C8.3014 20.9009 8.22915 21.0753 8.22915 21.2571C8.22915 21.439 8.3014 21.6134 8.43 21.742C8.55861 21.8706 8.73303 21.9429 8.91491 21.9429C9.09678 21.9429 9.27121 21.8706 9.39982 21.742C9.52842 21.6134 9.60067 21.439 9.60067 21.2571ZM21.2586 21.2571C21.2586 21.9846 20.9696 22.6823 20.4552 23.1966C19.9408 23.711 19.2431 24 18.5156 24C17.7881 24 17.0904 23.711 16.576 23.1966C16.0615 22.6823 15.7725 21.9846 15.7725 21.2571C15.7725 20.5297 16.0615 19.832 16.576 19.3177C17.0904 18.8033 17.7881 18.5143 18.5156 18.5143C19.2431 18.5143 19.9408 18.8033 20.4552 19.3177C20.9696 19.832 21.2586 20.5297 21.2586 21.2571ZM19.2013 21.2571C19.2013 21.0753 19.1291 20.9009 19.0005 20.7723C18.8719 20.6437 18.6975 20.5714 18.5156 20.5714C18.3337 20.5714 18.1593 20.6437 18.0307 20.7723C17.9021 20.9009 17.8298 21.0753 17.8298 21.2571C17.8298 21.439 17.9021 21.6134 18.0307 21.742C18.1593 21.8706 18.3337 21.9429 18.5156 21.9429C18.6975 21.9429 18.8719 21.8706 19.0005 21.742C19.1291 21.6134 19.2013 21.439 19.2013 21.2571Z" fill="#666666"/>
</svg>
