<svg width="21" height="19" viewBox="0 0 21 19" fill="none" xmlns="http://www.w3.org/2000/svg">
<path d="M4.33333 3.5H2.66667C1.74619 3.5 1 4.24619 1 5.16667C1 7.00762 2.49238 8.5 4.33333 8.5M16 3.5H17.6667C18.5871 3.5 19.3333 4.24619 19.3333 5.16667C19.3333 7.00762 17.8409 8.5 16 8.5M10.168 11V14.3333M7.94314 17.6663H12.3876C13.0012 17.6663 13.4987 17.1689 13.4987 16.5552C13.4987 15.3279 12.5038 14.333 11.2765 14.333H9.05425C7.82695 14.333 6.83203 15.3279 6.83203 16.5552C6.83203 17.1689 7.32949 17.6663 7.94314 17.6663ZM10.1654 11C9.39133 11 9.00431 11 8.6794 10.9572C6.43573 10.6618 4.67019 8.8963 4.37481 6.65263C4.33203 6.32772 4.33203 5.9407 4.33203 5.16667V4.75C4.33203 4.05302 4.33203 3.70453 4.38968 3.41473C4.6264 2.22466 5.55669 1.29436 6.74676 1.05764C7.03656 1 7.38505 1 8.08203 1H12.2487C12.9457 1 13.2942 1 13.584 1.05764C14.774 1.29436 15.7043 2.22466 15.9411 3.41473C15.9987 3.70453 15.9987 4.05302 15.9987 4.75V5.16667C15.9987 5.9407 15.9987 6.32772 15.9559 6.65263C15.6605 8.8963 13.895 10.6618 11.6513 10.9572C11.3264 11 10.9394 11 10.1654 11Z" stroke="white" stroke-opacity="0.7" stroke-width="1.5" stroke-linecap="round" stroke-linejoin="round"/>
</svg>
