<svg width="21" height="21" viewBox="0 0 21 21" fill="none" xmlns="http://www.w3.org/2000/svg">
<path d="M10.5 16C12.7542 14.57 14.4735 14.1579 16.8001 14.0391C17.9769 13.9791 18.5653 13.949 18.971 13.7238C19.3402 13.5187 19.6097 13.2351 19.7957 12.8559C20 12.4393 20 11.8899 20 10.7911V1C15.7778 1 13.6667 0.999999 10.5 3.00893M10.5 16C8.24583 14.57 6.52653 14.1579 4.19988 14.0391C3.02306 13.9791 2.43466 13.949 2.029 13.7238C1.65976 13.5187 1.39027 13.2351 1.20431 12.8559C1 12.4393 1 11.8899 1 10.7911V1C5.22222 1 7.33333 0.999999 10.5 3.00893M10.5 16V3.00893" stroke="white" stroke-opacity="0.7" stroke-width="1.5" stroke-linecap="round" stroke-linejoin="round"/>
<path d="M19 18C15.2222 18 13.3333 18.4 10.5 20C7.66667 18.4 5.77778 18 2 18" stroke="white" stroke-opacity="0.7" stroke-width="1.5" stroke-linecap="round" stroke-linejoin="round"/>
</svg>
