<svg width="9" height="11" viewBox="0 0 9 11" fill="none" xmlns="http://www.w3.org/2000/svg">
<path d="M8.18182 4.32143C8.18182 3.3837 7.79391 2.48438 7.10344 1.8213C6.41296 1.15823 5.47648 0.785714 4.5 0.785714C3.52352 0.785714 2.58704 1.15823 1.89656 1.8213C1.20609 2.48438 0.818182 3.3837 0.818182 4.32143C0.818182 5.63534 1.80985 7.31031 3.83516 9.29729C4.20504 9.66018 4.79496 9.66018 5.16484 9.29729C7.19015 7.31031 8.18182 5.63534 8.18182 4.32143ZM5.15055 10.4166C4.783 10.7557 4.217 10.7557 3.84945 10.4166C1.28294 8.049 0 6.01684 0 4.32143C0 3.17531 0.474106 2.07614 1.31802 1.26572C2.16193 0.455292 3.30653 0 4.5 0C5.69347 0 6.83807 0.455292 7.68198 1.26572C8.5259 2.07614 9 3.17531 9 4.32143C9 6.01684 7.71706 8.049 5.15055 10.4166Z" fill="#3456FF"/>
<path d="M4.5 6C4.89782 6 5.27936 5.84196 5.56066 5.56066C5.84196 5.27936 6 4.89782 6 4.5C6 4.10218 5.84196 3.72064 5.56066 3.43934C5.27936 3.15804 4.89782 3 4.5 3C4.10218 3 3.72064 3.15804 3.43934 3.43934C3.15804 3.72064 3 4.10218 3 4.5C3 4.89782 3.15804 5.27936 3.43934 5.56066C3.72064 5.84196 4.10218 6 4.5 6ZM4.5 7C3.83696 7 3.20107 6.73661 2.73223 6.26777C2.26339 5.79893 2 5.16304 2 4.5C2 3.83696 2.26339 3.20107 2.73223 2.73223C3.20107 2.26339 3.83696 2 4.5 2C5.16304 2 5.79893 2.26339 6.26777 2.73223C6.73661 3.20107 7 3.83696 7 4.5C7 5.16304 6.73661 5.79893 6.26777 6.26777C5.79893 6.73661 5.16304 7 4.5 7Z" fill="#3456FF"/>
</svg>
