<svg width="10" height="11" viewBox="0 0 10 11" fill="none" xmlns="http://www.w3.org/2000/svg">
<path d="M4.95475 1.41026C6.26883 1.41026 7.52909 1.91543 8.45828 2.81464C9.38748 3.71386 9.9095 4.93345 9.9095 6.20513C9.9095 7.47681 9.38748 8.6964 8.45828 9.59562C7.52909 10.4948 6.26883 11 4.95475 11C3.64067 11 2.38041 10.4948 1.45121 9.59562C0.522017 8.6964 0 7.47681 0 6.20513C0 4.93345 0.522017 3.71386 1.45121 2.81464C2.38041 1.91543 3.64067 1.41026 4.95475 1.41026ZM4.95475 2.25641C3.87256 2.25641 2.8347 2.67244 2.06948 3.41296C1.30426 4.15349 0.874367 5.15786 0.874367 6.20513C0.874367 7.25239 1.30426 8.25677 2.06948 8.99729C2.8347 9.73782 3.87256 10.1538 4.95475 10.1538C6.03693 10.1538 7.07479 9.73782 7.84001 8.99729C8.60523 8.25677 9.03513 7.25239 9.03513 6.20513C9.03513 5.15786 8.60523 4.15349 7.84001 3.41296C7.07479 2.67244 6.03693 2.25641 4.95475 2.25641ZM4.95475 3.10256C5.06039 3.10257 5.16246 3.13959 5.24208 3.20679C5.3217 3.27399 5.37348 3.36682 5.38785 3.4681L5.39193 3.52564V6.0641C5.3919 6.1713 5.34982 6.27448 5.2742 6.35281C5.19858 6.43113 5.09506 6.47876 4.98455 6.48607C4.87404 6.49337 4.76478 6.45981 4.67886 6.39217C4.59293 6.32452 4.53674 6.22783 4.52165 6.12164L4.51756 6.0641V3.52564C4.51756 3.41343 4.56362 3.30582 4.64561 3.22648C4.7276 3.14714 4.8388 3.10256 4.95475 3.10256ZM9.12082 1.47456L9.1692 1.50841L9.84421 2.05221C9.92873 2.121 9.98322 2.21819 9.99672 2.32427C10.0102 2.43034 9.98174 2.53743 9.917 2.62401C9.85226 2.7106 9.75605 2.77026 9.64772 2.79102C9.53938 2.81177 9.42694 2.79208 9.333 2.7359L9.2852 2.70205L8.6096 2.15826C8.52508 2.08947 8.4706 1.99227 8.45709 1.8862C8.44359 1.78012 8.47207 1.67304 8.53681 1.58645C8.60155 1.49987 8.69776 1.4402 8.8061 1.41945C8.91443 1.39869 9.02687 1.41838 9.12082 1.47456ZM6.2663 0C6.37707 3.28548e-05 6.48369 0.0407533 6.56463 0.113933C6.64557 0.187113 6.69478 0.287297 6.70233 0.39424C6.70988 0.501183 6.6752 0.606913 6.6053 0.690066C6.5354 0.773219 6.43549 0.827594 6.32576 0.842205L6.2663 0.846154H3.6432C3.53243 0.846121 3.42581 0.805401 3.34487 0.732221C3.26393 0.659041 3.21471 0.558857 3.20716 0.451914C3.19961 0.34497 3.23429 0.23924 3.30419 0.156088C3.3741 0.0729353 3.47401 0.0185598 3.58374 0.0039487L3.6432 0H6.2663Z" fill="black"/>
</svg>
