<svg width="20" height="13" viewBox="0 0 20 13" fill="none" xmlns="http://www.w3.org/2000/svg">
<path d="M1 3H5H1ZM19 3H9H19ZM1 10H13H1ZM19 10H17H19Z" fill="#666666"/>
<path d="M1 3H5M19 3H9M1 10H13M19 10H17" stroke="#666666" stroke-width="2" stroke-linecap="round"/>
<path d="M7 5C8.10457 5 9 4.10457 9 3C9 1.89543 8.10457 1 7 1C5.89543 1 5 1.89543 5 3C5 4.10457 5.89543 5 7 5Z" stroke="#666666" stroke-width="2" stroke-linecap="round"/>
<path d="M15 12C16.1046 12 17 11.1046 17 10C17 8.89543 16.1046 8 15 8C13.8954 8 13 8.89543 13 10C13 11.1046 13.8954 12 15 12Z" stroke="#666666" stroke-width="2" stroke-linecap="round"/>
</svg>
