<svg width="20" height="20" viewBox="0 0 20 20" fill="none" xmlns="http://www.w3.org/2000/svg">
<path d="M0 0.857143C0 0.629814 0.0903121 0.411797 0.251069 0.251051C0.411825 0.0903058 0.629858 0 0.857203 0H1.49496C2.58075 0 3.23223 0.730286 3.60368 1.40914C3.8517 1.86171 4.03114 2.38629 4.17172 2.86171C4.20974 2.85871 4.24787 2.85719 4.28601 2.85714H18.5704C19.5191 2.85714 20.2048 3.76457 19.9443 4.67771L17.855 12.0023C17.6676 12.6593 17.2713 13.2373 16.7261 13.6489C16.1808 14.0605 15.5162 14.2833 14.833 14.2834H8.03485C7.34622 14.2835 6.67664 14.0573 6.12903 13.6399C5.58141 13.2224 5.18608 12.6366 5.00378 11.9726L4.13515 8.80457L2.69505 3.94971L2.6939 3.94057C2.5156 3.29257 2.34874 2.68571 2.09958 2.23314C1.8607 1.79314 1.66869 1.71429 1.4961 1.71429H0.857203C0.629858 1.71429 0.411825 1.62398 0.251069 1.46323C0.0903121 1.30249 0 1.08447 0 0.857143ZM5.79812 8.38857L6.65647 11.5189C6.82791 12.1383 7.39137 12.5691 8.03485 12.5691H14.833C15.1436 12.5691 15.4457 12.468 15.6936 12.2809C15.9414 12.0939 16.1216 11.8312 16.2068 11.5326L18.1921 4.57143H4.6689L5.78212 8.328L5.79812 8.38857ZM9.71496 17.7143C9.71496 18.3205 9.47413 18.9019 9.04545 19.3305C8.61676 19.7592 8.03534 20 7.42909 20C6.82284 20 6.24142 19.7592 5.81273 19.3305C5.38405 18.9019 5.14322 18.3205 5.14322 17.7143C5.14322 17.1081 5.38405 16.5267 5.81273 16.098C6.24142 15.6694 6.82284 15.4286 7.42909 15.4286C8.03534 15.4286 8.61676 15.6694 9.04545 16.098C9.47413 16.5267 9.71496 17.1081 9.71496 17.7143V17.7143ZM8.00056 17.7143C8.00056 17.5627 7.94035 17.4174 7.83318 17.3102C7.72601 17.2031 7.58065 17.1429 7.42909 17.1429C7.27753 17.1429 7.13217 17.2031 7.025 17.3102C6.91783 17.4174 6.85762 17.5627 6.85762 17.7143C6.85762 17.8658 6.91783 18.0112 7.025 18.1183C7.13217 18.2255 7.27753 18.2857 7.42909 18.2857C7.58065 18.2857 7.72601 18.2255 7.83318 18.1183C7.94035 18.0112 8.00056 17.8658 8.00056 17.7143ZM17.7155 17.7143C17.7155 18.3205 17.4747 18.9019 17.046 19.3305C16.6173 19.7592 16.0359 20 15.4296 20C14.8234 20 14.242 19.7592 13.8133 19.3305C13.3846 18.9019 13.1438 18.3205 13.1438 17.7143C13.1438 17.1081 13.3846 16.5267 13.8133 16.098C14.242 15.6694 14.8234 15.4286 15.4296 15.4286C16.0359 15.4286 16.6173 15.6694 17.046 16.098C17.4747 16.5267 17.7155 17.1081 17.7155 17.7143V17.7143ZM16.0011 17.7143C16.0011 17.5627 15.9409 17.4174 15.8337 17.3102C15.7266 17.2031 15.5812 17.1429 15.4296 17.1429C15.2781 17.1429 15.1327 17.2031 15.0256 17.3102C14.9184 17.4174 14.8582 17.5627 14.8582 17.7143C14.8582 17.8658 14.9184 18.0112 15.0256 18.1183C15.1327 18.2255 15.2781 18.2857 15.4296 18.2857C15.5812 18.2857 15.7266 18.2255 15.8337 18.1183C15.9409 18.0112 16.0011 17.8658 16.0011 17.7143Z" fill="white" fill-opacity="0.7"/>
</svg>
