<svg width="18" height="13" viewBox="0 0 18 13" fill="none" xmlns="http://www.w3.org/2000/svg">
<path d="M5.42243 5.46271C5.42243 4.88319 5.65095 4.3274 6.05771 3.91762C6.46447 3.50784 7.01616 3.27762 7.5914 3.27762C8.16665 3.27762 8.71834 3.50784 9.1251 3.91762C9.53186 4.3274 9.76038 4.88319 9.76038 5.46271C9.76038 6.04223 9.53186 6.59801 9.1251 7.00779C8.71834 7.41758 8.16665 7.64779 7.5914 7.64779C7.01616 7.64779 6.46447 7.41758 6.05771 7.00779C5.65095 6.59801 5.42243 6.04223 5.42243 5.46271ZM7.5914 4.37017C7.30378 4.37017 7.02794 4.48527 6.82456 4.69016C6.62118 4.89505 6.50692 5.17295 6.50692 5.46271C6.50692 5.75247 6.62118 6.03036 6.82456 6.23525C7.02794 6.44014 7.30378 6.55525 7.5914 6.55525C7.87903 6.55525 8.15487 6.44014 8.35825 6.23525C8.56163 6.03036 8.67589 5.75247 8.67589 5.46271C8.67589 5.17295 8.56163 4.89505 8.35825 4.69016C8.15487 4.48527 7.87903 4.37017 7.5914 4.37017ZM1.62673 0C1.19529 0 0.781529 0.17266 0.476458 0.479997C0.171387 0.787334 0 1.20417 0 1.63881V9.2866C0 9.72124 0.171387 10.1381 0.476458 10.4454C0.781529 10.7528 1.19529 10.9254 1.62673 10.9254H13.5561C13.9875 10.9254 14.4013 10.7528 14.7063 10.4454C15.0114 10.1381 15.1828 9.72124 15.1828 9.2866V1.63881C15.1828 1.20417 15.0114 0.787334 14.7063 0.479997C14.4013 0.17266 13.9875 0 13.5561 0H1.62673ZM1.08449 1.63881C1.08449 1.49393 1.14162 1.35499 1.24331 1.25254C1.345 1.15009 1.48292 1.09254 1.62673 1.09254H3.25346V2.18508C3.25346 2.47484 3.1392 2.75273 2.93582 2.95763C2.73244 3.16252 2.4566 3.27762 2.16897 3.27762H1.08449V1.63881ZM1.08449 4.37017H2.16897C2.74422 4.37017 3.29591 4.13995 3.70267 3.73017C4.10943 3.32039 4.33794 2.7646 4.33794 2.18508V1.09254H10.8449V2.18508C10.8449 2.7646 11.0734 3.32039 11.4801 3.73017C11.8869 4.13995 12.4386 4.37017 13.0138 4.37017H14.0983V6.55525H13.0138C12.4386 6.55525 11.8869 6.78546 11.4801 7.19524C11.0734 7.60503 10.8449 8.16081 10.8449 8.74033V9.83287H4.33794V8.74033C4.33794 8.16081 4.10943 7.60503 3.70267 7.19524C3.29591 6.78546 2.74422 6.55525 2.16897 6.55525H1.08449V4.37017ZM11.9293 1.09254H13.5561C13.6999 1.09254 13.8378 1.15009 13.9395 1.25254C14.0412 1.35499 14.0983 1.49393 14.0983 1.63881V3.27762H13.0138C12.7262 3.27762 12.4504 3.16252 12.247 2.95763C12.0436 2.75273 11.9293 2.47484 11.9293 2.18508V1.09254ZM14.0983 7.64779V9.2866C14.0983 9.43148 14.0412 9.57043 13.9395 9.67287C13.8378 9.77532 13.6999 9.83287 13.5561 9.83287H11.9293V8.74033C11.9293 8.45057 12.0436 8.17268 12.247 7.96779C12.4504 7.7629 12.7262 7.64779 13.0138 7.64779H14.0983ZM3.25346 9.83287H1.62673C1.48292 9.83287 1.345 9.77532 1.24331 9.67287C1.14162 9.57043 1.08449 9.43148 1.08449 9.2866V7.64779H2.16897C2.4566 7.64779 2.73244 7.7629 2.93582 7.96779C3.1392 8.17268 3.25346 8.45057 3.25346 8.74033V9.83287Z" fill="#3456FF"/>
<path d="M16.0522 9.8132C16.0522 10.4169 15.8023 10.9958 15.3574 11.4227C14.9125 11.8495 14.3091 12.0893 13.6799 12.0893H3.79688C3.89503 12.3557 4.07689 12.5863 4.31737 12.7494C4.55785 12.9124 4.84513 12.9999 5.1396 12.9998H13.6799C14.5608 12.9998 15.4056 12.6641 16.0284 12.0665C16.6513 11.4689 17.0012 10.6583 17.0012 9.8132V5.26094C17.0013 4.97841 16.9101 4.70278 16.7402 4.47205C16.5702 4.24131 16.3299 4.06684 16.0522 3.97266V9.8132Z" fill="#022277"/>
</svg>
