<svg width="19" height="20" viewBox="0 0 19 20" fill="none" xmlns="http://www.w3.org/2000/svg">
<path d="M10 12.4546H5C3.93913 12.4546 2.92172 12.9143 2.17157 13.7327C1.42143 14.551 1 15.6609 1 16.8182C1 17.3969 1.21071 17.9518 1.58579 18.361C1.96086 18.7702 2.46957 19 3 19H10" stroke="#3456FF" stroke-linecap="round" stroke-linejoin="round"/>
<path d="M13.2736 5.09091C13.2736 5.90001 13.0337 6.69095 12.5842 7.36369C12.1347 8.03644 11.4957 8.56078 10.7482 8.87041C10.0007 9.18005 9.17817 9.26106 8.38461 9.10321C7.59105 8.94536 6.86212 8.55574 6.29 7.98362C5.71787 7.41149 5.32825 6.68256 5.1704 5.889C5.01256 5.09545 5.09357 4.2729 5.4032 3.52539C5.71283 2.77787 6.23717 2.13896 6.90992 1.68944C7.58267 1.23993 8.3736 1 9.18271 1C10.2677 1 11.3082 1.431 12.0754 2.1982C12.8426 2.96539 13.2736 4.00593 13.2736 5.09091Z" stroke="#3456FF" stroke-linecap="round" stroke-linejoin="round"/>
<path d="M18 14L13 19" stroke="#022277" stroke-linecap="round" stroke-linejoin="round"/>
<path d="M13 14L18 19" stroke="#022277" stroke-linecap="round" stroke-linejoin="round"/>
</svg>
