<svg width="16" height="16" viewBox="0 0 16 16" fill="none" xmlns="http://www.w3.org/2000/svg">
<path d="M4 9.14453H12" stroke="#022277" stroke-linecap="round"/>
<path d="M4.57031 11.4297H7.99888" stroke="#022277" stroke-linecap="round"/>
<path d="M12.6667 1.33333H12V0.666667C12 0.298667 11.702 0 11.3333 0C10.9647 0 10.6667 0.298667 10.6667 0.666667V1.33333H5.33333V0.666667C5.33333 0.298667 5.03533 0 4.66667 0C4.298 0 4 0.298667 4 0.666667V1.33333H3.33333C1.49533 1.33333 0 2.82867 0 4.66667V12.6667C0 14.5047 1.49533 16 3.33333 16H12.6667C14.5047 16 16 14.5047 16 12.6667V4.66667C16 2.82867 14.5047 1.33333 12.6667 1.33333ZM3.33333 2.66667H12.6667C13.7693 2.66667 14.6667 3.564 14.6667 4.66667V5.33333H1.33333V4.66667C1.33333 3.564 2.23067 2.66667 3.33333 2.66667ZM12.6667 14.6667H3.33333C2.23067 14.6667 1.33333 13.7693 1.33333 12.6667V6.66667H14.6667V12.6667C14.6667 13.7693 13.7693 14.6667 12.6667 14.6667Z" fill="#3456FF"/>
</svg>
